<!--?xml version="1.0" standalone="no"?-->
              <svg id="sw-js-blob-svg" viewBox="0 0 100 100" xmlns="http://www.w3.org/2000/svg" version="1.1">
                <image src="omarcropped.jpg" id="img"  /> 

                <path id="thePath" fill="url(#img)" d="M22.6,-40.3C28.8,-35.5,32.9,-28.5,36.9,-21.4C40.8,-14.3,44.5,-7.1,44.9,0.2C45.3,7.6,42.4,15.2,37.7,21.1C33.1,27,26.8,31.2,20.2,35.5C13.7,39.7,6.8,44,-0.1,44.1C-6.9,44.2,-13.9,40.1,-19.9,35.6C-25.9,31,-31,25.9,-34.9,19.9C-38.8,13.9,-41.6,6.9,-41,0.3C-40.4,-6.3,-36.5,-12.5,-33.2,-19.6C-29.8,-26.6,-27.1,-34.4,-21.7,-39.6C-16.2,-44.8,-8.1,-47.4,0,-47.4C8.2,-47.5,16.4,-45,22.6,-40.3Z" width="100%" height="100%" transform="translate(50 50)" stroke-width="0" style="transition: all 0.3s ease 0s;" stroke="rgba(248, 117, 55, 1)"></path>
              </svg>